<?xml version="1.0" encoding="UTF-8"?>
<svg id="Layer_1" data-name="Layer 1" xmlns="http://www.w3.org/2000/svg" viewBox="0 0 239.84 92.19">
  <defs>
    <style>
      .cls-1 {
      fill: #0b9da3;
      }

      .cls-2 {
      fill: #fff;
      }
    </style>
  </defs>
  <g>
    <path class="cls-1" d="m157.85,73.09h3.49v9.54h6.1v3.06h-9.6v-12.6Z"/>
    <path class="cls-1" d="m174.39,73h3.37l5.37,12.69h-3.75l-.9-2.27h-4.88l-.9,2.27h-3.66l5.35-12.69Zm3.06,7.71l-1.4-3.57-1.42,3.57h2.83Z"/>
    <path class="cls-1" d="m185.42,73.09h6.46c1.58,0,2.7.4,3.44,1.12.5.52.81,1.19.81,2.05v.04c0,1.46-.83,2.32-1.94,2.81,1.53.5,2.5,1.37,2.5,3.08v.04c0,2.16-1.76,3.47-4.77,3.47h-6.5v-12.6Zm7.27,3.89c0-.7-.56-1.08-1.58-1.08h-2.29v2.21h2.2c1.06,0,1.67-.36,1.67-1.1v-.04Zm-1.21,3.58h-2.67v2.32h2.7c1.08,0,1.67-.41,1.67-1.15v-.04c0-.68-.54-1.13-1.71-1.13Z"/>
    <path class="cls-1" d="m198.42,83.82l1.94-2.32c1.26.99,2.63,1.51,4.09,1.51.96,0,1.46-.32,1.46-.86v-.04c0-.54-.41-.81-2.14-1.22-2.68-.61-4.75-1.37-4.75-3.94v-.04c0-2.34,1.85-4.03,4.88-4.03,2.14,0,3.82.58,5.19,1.67l-1.75,2.47c-1.15-.83-2.41-1.24-3.53-1.24-.85,0-1.26.34-1.26.81v.04c0,.58.43.83,2.2,1.22,2.88.63,4.68,1.57,4.68,3.93v.04c0,2.58-2.03,4.11-5.1,4.11-2.23,0-4.34-.7-5.91-2.09Z"/>
  </g>
  <g>
    <path class="cls-2" d="m31.01,28.34h5.84l15.78,36.12h-6.66l-3.64-8.66h-16.96l-3.69,8.66h-6.46l15.78-36.12Zm9.02,21.88l-6.2-14.35-6.15,14.35h12.35Z"/>
    <path class="cls-2" d="m56.01,37.41h6.2v4.1c1.74-2.41,4.1-4.66,8.25-4.66,3.89,0,6.66,1.9,8.1,4.77,2.15-2.87,5.02-4.77,9.12-4.77,5.89,0,9.48,3.74,9.48,10.35v17.27h-6.2v-15.37c0-4.3-2-6.61-5.48-6.61s-5.79,2.36-5.79,6.71v15.27h-6.2v-15.42c0-4.2-2.05-6.56-5.48-6.56s-5.79,2.56-5.79,6.71v15.27h-6.2v-27.05Z"/>
    <path class="cls-2" d="m102.63,37.41h6.2v4.51c2-2.82,4.82-5.07,9.22-5.07,6.35,0,12.55,5.02,12.55,14.04v.1c0,8.97-6.15,14.04-12.55,14.04-4.51,0-7.33-2.25-9.22-4.76v12.4h-6.2v-35.25Zm21.67,13.58v-.1c0-5.23-3.54-8.66-7.74-8.66s-7.89,3.48-7.89,8.66v.1c0,5.17,3.69,8.66,7.89,8.66s7.74-3.33,7.74-8.66Z"/>
    <path class="cls-2" d="m135.32,27.06h6.2v37.4h-6.2V27.06Z"/>
    <path class="cls-2" d="m147.67,27.37h6.66v5.89h-6.66v-5.89Zm.26,10.04h6.2v27.05h-6.2v-27.05Z"/>
    <path class="cls-2" d="m158.69,51.09v-.1c0-7.69,5.94-14.14,14.09-14.14,5.07,0,8.25,1.9,10.81,4.66l-3.89,4.15c-1.9-2-3.89-3.38-6.97-3.38-4.51,0-7.84,3.89-7.84,8.61v.1c0,4.82,3.33,8.66,8.1,8.66,2.92,0,5.07-1.33,7.02-3.33l3.74,3.69c-2.66,2.97-5.79,5.07-11.07,5.07-8.04,0-13.99-6.3-13.99-13.99Z"/>
    <path class="cls-2" d="m185.58,56.68v-.1c0-5.84,4.56-8.71,11.17-8.71,3.02,0,5.18.46,7.28,1.13v-.67c0-3.84-2.36-5.89-6.71-5.89-3.02,0-5.28.67-7.74,1.69l-1.64-4.87c2.97-1.33,5.89-2.2,10.2-2.2,4.05,0,7.07,1.08,8.97,3.02,2,1.95,2.92,4.82,2.92,8.35v16.04h-6.05v-3.38c-1.84,2.2-4.66,3.95-8.81,3.95-5.07,0-9.58-2.92-9.58-8.35Zm18.55-1.95v-1.84c-1.59-.62-3.69-1.08-6.15-1.08-4,0-6.35,1.69-6.35,4.51v.1c0,2.61,2.31,4.1,5.28,4.1,4.1,0,7.22-2.36,7.22-5.79Z"/>
  </g>
</svg>
